<?xml version="1.0"?>

<svg id="svg" version="1.1" xmlns="http://www.w3.org/2000/svg" style="display: block;" viewBox="0 0 549 819"><path d="M0 0 C1.8628363 0.00068733 1.8628363 0.00068733 3.76330566 0.00138855 C7.05867418 0.00517309 10.35384733 0.01812812 13.64916992 0.03485107 C16.95360554 0.04821593 20.25804166 0.04512697 23.5625 0.04492188 C30.76140713 0.05347743 37.95830034 0.11233339 45.15625 0.23046875 C46.46674316 0.25194977 46.46674316 0.25194977 47.80371094 0.27386475 C57.06952372 0.48001451 62.02208711 1.37191672 68.96875 7.85546875 C72.08773999 11.84252715 72.42261837 16.29481959 72.15625 21.23046875 C70.28674143 27.56602559 67.10638024 31.46879237 61.44946289 34.84683228 C57.64667994 36.44456354 54.89412429 36.61099493 50.77734375 36.61865234 C49.70783981 36.62653778 49.70783981 36.62653778 48.61672974 36.63458252 C46.27550923 36.64771439 43.93497662 36.63906914 41.59375 36.62890625 C39.95759959 36.63092895 38.32145007 36.63384203 36.68530273 36.63760376 C33.26244492 36.64201787 29.83982256 36.63562563 26.41699219 36.62158203 C22.03892777 36.60449055 17.66141516 36.61433665 13.28337097 36.63229942 C9.90665562 36.64316205 6.53007018 36.63967959 3.15335083 36.63191605 C1.5394789 36.62992088 -0.07440498 36.63234921 -1.68826294 36.63935471 C-3.94743908 36.64701028 -6.20573298 36.63530873 -8.46484375 36.61865234 C-9.7480249 36.61626556 -11.03120605 36.61387878 -12.35327148 36.61141968 C-16.96230572 36.10838955 -20.3254204 34.65967208 -23.70703125 31.4765625 C-24.18527344 30.87972656 -24.66351563 30.28289063 -25.15625 29.66796875 C-25.64738281 29.06855469 -26.13851563 28.46914063 -26.64453125 27.8515625 C-30.03873928 23.26330084 -29.35950767 17.70323065 -28.84375 12.23046875 C-26.24157288 6.83336064 -22.59911351 3.28345148 -16.97851562 1.13549805 C-11.43019789 -0.35800945 -5.70112475 -0.03455565 0 0 Z M-91.63896179 50.09002686 C-90.33931488 50.08431671 -89.03966797 50.07860657 -87.70063782 50.07272339 C-86.25704966 50.07147804 -84.81346139 50.07035294 -83.36987305 50.06933594 C-81.85209024 50.06470745 -80.3343086 50.05968275 -78.81652832 50.05429077 C-74.69040208 50.04116756 -70.56429211 50.03472195 -66.43814826 50.03028011 C-63.86027606 50.02734922 -61.28240831 50.02324437 -58.70453835 50.01877594 C-50.63889959 50.00510112 -42.57327101 49.99543443 -34.50762147 49.99157405 C-25.19717417 49.98709341 -15.88687369 49.9695452 -6.57647103 49.94057345 C0.6202297 49.91895646 7.81688913 49.90886976 15.01362199 49.90753293 C19.31187119 49.9064849 23.60998238 49.90057755 27.9081974 49.88271332 C31.95229175 49.86623233 35.99614435 49.86407719 40.04026031 49.87285233 C41.52291448 49.87362269 43.00558164 49.86927998 44.48820305 49.85939407 C46.51559941 49.84667065 48.54309295 49.85434451 50.57051086 49.86297607 C52.27090499 49.86077623 52.27090499 49.86077623 54.00565052 49.85853195 C59.26789039 50.47975361 63.14280265 52.6425119 66.46875 56.73046875 C66.95988281 57.31828125 67.45101562 57.90609375 67.95703125 58.51171875 C71.00260692 62.8767132 70.72133412 68.13675269 70.15625 73.23046875 C67.49486458 78.65560057 63.3034543 82.69097721 57.85776329 85.35480022 C54.72565032 86.37004333 52.16171407 86.48502018 48.86953735 86.49116516 C47.60224289 86.49824997 46.33494843 86.50533478 45.0292511 86.51263428 C43.63229334 86.51034064 42.23533593 86.50783097 40.83837891 86.50512695 C39.36133059 86.50947608 37.88428454 86.5146599 36.40724182 86.52061462 C32.40097185 86.53399515 28.39479628 86.53458429 24.38850832 86.53205132 C21.04117239 86.53098084 17.69385549 86.53586703 14.34652364 86.54065675 C6.4474726 86.55174893 -1.45153088 86.55219114 -9.35058594 86.54614258 C-17.49229608 86.54010392 -25.63383336 86.55241167 -33.77551401 86.57371265 C-40.77185585 86.59134227 -47.76814275 86.59732781 -54.76450598 86.5940749 C-58.94034566 86.59226387 -63.11606205 86.59488013 -67.29188156 86.60878944 C-71.22029374 86.62138515 -75.14843701 86.61940735 -79.07684517 86.60637856 C-80.51553629 86.6040169 -81.95424643 86.60673273 -83.39291573 86.61500168 C-93.30207518 86.66783226 -100.35333438 86.30475017 -107.84375 79.23046875 C-111.73683652 73.76318017 -111.61143835 68.73425546 -110.84375 62.23046875 C-109.14923158 56.85013344 -105.70745612 53.92102958 -100.84375 51.23046875 C-97.54769353 50.13178326 -95.11041028 50.09914536 -91.63896179 50.09002686 Z M-136.37364197 98.72926331 C-135.54701681 98.72372891 -134.72039166 98.71819451 -133.86871725 98.71249241 C-131.11260718 98.69893319 -128.35741013 98.71382909 -125.60131836 98.72875977 C-123.61989458 98.7249749 -121.63847344 98.71947348 -119.65705872 98.71238708 C-114.28522809 98.69843808 -108.91371796 98.7095981 -103.54190516 98.7260983 C-97.91795401 98.73995877 -92.29402128 98.73348765 -86.6700592 98.72996521 C-77.22717123 98.72726411 -67.78441044 98.74073095 -58.34155273 98.76391602 C-47.42549084 98.79053276 -36.50964148 98.79227 -25.59355825 98.78052765 C-15.08941424 98.76974794 -4.58534709 98.77593799 5.91879082 98.79008293 C10.38796239 98.79584026 14.85707768 98.79576204 19.32625008 98.79101753 C24.5884477 98.78624462 29.85041263 98.79636262 35.11256599 98.81797218 C37.04349991 98.82353562 38.97445621 98.82400941 40.90539169 98.81901932 C43.54156105 98.81306112 46.17702021 98.82558176 48.81312561 98.8427887 C49.57684528 98.83677865 50.34056495 98.83076861 51.12742764 98.82457644 C56.74318414 98.89121259 60.89169043 100.0988393 65.01953125 103.984375 C65.49777344 104.58121094 65.97601562 105.17804688 66.46875 105.79296875 C66.95988281 106.39238281 67.45101562 106.99179688 67.95703125 107.609375 C71.04551767 111.78436478 70.90487062 116.22540519 70.15625 121.23046875 C67.4641917 127.32253148 64.34009875 130.68133288 58.15625 133.23046875 C55.27251512 133.51114459 52.60962005 133.64055776 49.73046875 133.6181488 C48.89653091 133.62353434 48.06259308 133.62891988 47.2033844 133.63446862 C44.41668829 133.64874473 41.63046742 133.64164538 38.84375 133.63452148 C36.84276956 133.64022518 34.84179237 133.64718944 32.84082031 133.65531921 C27.41114694 133.67326441 21.98163505 133.67207981 16.55194092 133.66637683 C12.01895482 133.66328738 7.48599986 133.66937463 2.95301819 133.67541558 C-7.73968086 133.68946327 -18.43230002 133.68789706 -29.125 133.67651367 C-40.15751659 133.6650281 -51.18979021 133.67911505 -62.22227478 133.70591015 C-71.69504001 133.72805598 -81.16772891 133.73470715 -90.64051819 133.72883373 C-96.2980023 133.72546079 -101.95533061 133.72790189 -107.61279297 133.74508476 C-112.93164351 133.76053427 -118.25013353 133.75662037 -123.56896973 133.73777962 C-125.52087331 133.73408843 -127.4728035 133.73721759 -129.42468262 133.74766541 C-132.08952846 133.76084056 -134.75317464 133.749359 -137.41796875 133.73167419 C-138.19015244 133.7412792 -138.96233612 133.75088421 -139.75791931 133.76078027 C-144.93638894 133.69008071 -147.84820201 132.48551624 -151.84375 129.23046875 C-156.40273489 124.05540482 -157.26393521 120.93617022 -157.18359375 114.125 C-156.66048098 109.66952227 -155.03366082 106.37831481 -151.84375 103.23046875 C-146.47694946 99.61110924 -142.78000743 98.6484569 -136.37364197 98.72926331 Z M-156.3868866 146.96304321 C-155.64505247 146.9585121 -154.90321834 146.95398099 -154.13890439 146.94931257 C-151.65788757 146.93667171 -149.17709035 146.93828872 -146.69604492 146.93994141 C-144.91520404 146.93395593 -143.13436576 146.92715034 -141.35353088 146.91958618 C-136.51871938 146.90192029 -131.68397868 146.89723053 -126.84913802 146.89595461 C-123.82733344 146.89453272 -120.80554684 146.89026238 -117.78374672 146.88496017 C-107.23822512 146.86645752 -96.69275409 146.85828981 -86.1472168 146.85986328 C-76.32297594 146.86106455 -66.49895483 146.83996568 -56.67476958 146.80837595 C-48.23553726 146.78220826 -39.79637669 146.7714962 -31.35710412 146.7727741 C-26.3187982 146.77328361 -21.28068755 146.7676063 -16.2424221 146.746418 C-11.5022279 146.72702751 -6.76241506 146.72691672 -2.02220726 146.74145126 C-0.28560834 146.74353949 1.45101451 146.7388376 3.18757248 146.72673035 C19.53655061 146.62015728 19.53655061 146.62015728 26.15625 151.23046875 C31.07654128 156.40972273 32.62815583 160.6563648 32.47265625 167.6953125 C31.83788297 172.78133543 29.44289746 175.97768044 25.78125 179.54296875 C20.54945153 182.90626777 15.79131389 183.48155887 9.64833069 183.49116516 C8.54549017 183.49690348 8.54549017 183.49690348 7.42037004 183.50275773 C4.9677544 183.51303966 2.51537498 183.5091048 0.06274414 183.50512695 C-1.7001619 183.50947607 -3.46306606 183.51465989 -5.22596741 183.52061462 C-10.00694272 183.53399386 -14.78783892 183.53458452 -19.5688293 183.53205132 C-23.56239951 183.53098096 -27.55595376 183.53586663 -31.54952055 183.54065675 C-40.97174657 183.55174806 -50.39393272 183.55219134 -59.81616211 183.54614258 C-69.53191332 183.54010124 -79.24751977 183.55241873 -88.96324629 183.57371265 C-97.30991378 183.59133242 -105.65653521 183.59732944 -114.00322062 183.5940749 C-118.98610881 183.59226262 -123.96889373 183.59489287 -128.95176506 183.60878944 C-133.63775196 183.62136937 -138.32351324 183.6194221 -143.00949669 183.60637856 C-144.72716091 183.60401365 -146.44484103 183.6067444 -148.16248703 183.61500168 C-150.51153457 183.62547824 -152.85982631 183.61736173 -155.20884705 183.60469055 C-157.1785517 183.60494216 -157.1785517 183.60494216 -159.18804836 183.60519886 C-165.85108911 182.92219947 -170.49032988 180.43038723 -174.84375 175.23046875 C-177.67578361 170.7382775 -178.39032207 167.51399876 -177.84375 162.23046875 C-176.42314867 156.0271763 -174.08710571 152.79595063 -168.84375 149.23046875 C-164.70223599 147.15698239 -160.93450664 146.94257487 -156.3868866 146.96304321 Z M-439.53125 192.48046875 C-438.29568359 192.50753906 -437.06011719 192.53460938 -435.78710938 192.5625 C-433.99563477 192.62244141 -433.99563477 192.62244141 -432.16796875 192.68359375 C-431.09635498 192.71614258 -430.02474121 192.74869141 -428.9206543 192.78222656 C-423.81082049 193.52662511 -420.6375 195.4006392 -417.09375 199.10546875 C-413.35153684 204.30298703 -411.88154892 208.78015782 -412.84375 215.23046875 C-414.62712266 220.54202731 -417.0862063 224.13806535 -421.84375 227.23046875 C-422.38088623 227.58705566 -422.91802246 227.94364258 -423.47143555 228.31103516 C-427.01534974 229.68454353 -430.5514022 229.55582445 -434.30078125 229.56640625 C-435.12196945 229.57306305 -435.94315765 229.57971985 -436.78923035 229.58657837 C-438.52491013 229.59668982 -440.26062868 229.60139585 -441.99633789 229.60107422 C-444.63689166 229.60543677 -447.27575858 229.64174074 -449.91601562 229.6796875 C-451.60676515 229.68555833 -453.29752257 229.68952594 -454.98828125 229.69140625 C-455.77080765 229.70577728 -456.55333405 229.72014832 -457.35957336 229.73495483 C-463.64589316 229.68319675 -467.86689303 227.96036673 -472.5859375 223.6328125 C-476.99985172 217.9251648 -477.56447065 213.27055161 -476.84375 206.23046875 C-475.54458246 201.44754621 -473.30678105 198.18606088 -469.28125 195.29296875 C-460.47749239 190.63041412 -449.16894881 192.14337913 -439.53125 192.48046875 Z M-192.92401123 197.08329773 C-192.20374701 197.07962104 -191.48348279 197.07594435 -190.74139237 197.07215625 C-188.31554353 197.06109822 -185.88973749 197.05727199 -183.46386719 197.0534668 C-181.72948571 197.04720373 -179.99510558 197.04055707 -178.26072693 197.03355408 C-173.53952336 197.01612941 -168.81832993 197.00558824 -164.09710217 196.99734855 C-161.14853679 196.99220131 -158.19997458 196.98612544 -155.25141144 196.97983742 C-146.02926636 196.96078092 -136.80712932 196.94655098 -127.58496833 196.93822545 C-116.93365913 196.92845148 -106.28255766 196.90212971 -95.63132167 196.86172456 C-87.40280375 196.8315794 -79.17434543 196.81675808 -70.94577336 196.81344444 C-66.02931464 196.81109204 -61.11307773 196.80210715 -56.19667816 196.77698326 C-51.57063208 196.75372564 -46.94495419 196.74945998 -42.31886482 196.75974464 C-40.62173552 196.76024069 -38.92458825 196.75390013 -37.22751427 196.7401886 C-34.90837565 196.72250088 -32.59056287 196.72955931 -30.27142334 196.74272156 C-28.97429287 196.7403332 -27.6771624 196.73794485 -26.34072495 196.73548412 C-21.07616944 197.48066362 -18.03317353 199.91245889 -14.53125 203.79296875 C-11.03770152 208.83920544 -11.23965167 214.30009498 -11.84375 220.23046875 C-14.19909436 225.12233781 -17.5610958 228.04125817 -21.84375 231.23046875 C-25.32915882 232.39227169 -28.05268074 232.36226033 -31.73188782 232.37091064 C-32.78906447 232.37536733 -32.78906447 232.37536733 -33.86759824 232.37991405 C-36.23506768 232.38860278 -38.60248657 232.39010944 -40.9699707 232.39160156 C-42.66509103 232.39622961 -44.36021031 232.40125425 -46.05532837 232.40664673 C-50.66491031 232.41977396 -55.27447769 232.42621631 -59.8840754 232.43065739 C-62.76346486 232.43358758 -65.64285033 232.43769228 -68.52223778 232.44216156 C-77.52973961 232.45583731 -86.53723234 232.4655036 -95.54474384 232.46936345 C-105.94527423 232.47384461 -116.34567323 232.49139489 -126.74616367 232.52036405 C-134.78362145 232.54197478 -142.82104226 232.55206741 -150.85852879 232.55340457 C-155.65979415 232.55445303 -160.460936 232.56036956 -165.26217079 232.57822418 C-169.77902436 232.59469434 -174.29566145 232.59686551 -178.81253433 232.58808517 C-180.46934399 232.58731423 -182.12616524 232.59166503 -183.78294563 232.60154343 C-186.04710862 232.61425038 -188.31050343 232.60839348 -190.57466125 232.59796143 C-191.84099553 232.59942799 -193.10732981 232.60089455 -194.41203785 232.60240555 C-198.99252054 232.10596238 -202.34779448 230.63861137 -205.70703125 227.4765625 C-206.18527344 226.87972656 -206.66351563 226.28289062 -207.15625 225.66796875 C-207.64738281 225.06855469 -208.13851563 224.46914062 -208.64453125 223.8515625 C-212.03873928 219.26330084 -211.35950767 213.70323065 -210.84375 208.23046875 C-206.94732987 200.14900478 -201.52961901 197.11168247 -192.92401123 197.08329773 Z M-455.21551514 244.08329773 C-454.06883865 244.07614243 -452.92216217 244.06898712 -451.74073792 244.06161499 C-450.4866362 244.05892609 -449.23253448 244.05623718 -447.94042969 244.0534668 C-446.60308151 244.04719857 -445.26573506 244.04055145 -443.9283905 244.03355408 C-439.54081424 244.01255419 -435.1532378 244.00215559 -430.765625 243.9921875 C-429.25268791 243.98813844 -427.739751 243.98402147 -426.22681427 243.97983742 C-419.11799129 243.96079478 -412.00917864 243.94656174 -404.90033507 243.93822545 C-396.70541985 243.92845577 -388.51077493 243.90213959 -380.31595492 243.86172456 C-373.97439816 243.83152688 -367.63291872 243.81675313 -361.29129148 243.81344444 C-357.50712911 243.81109814 -353.72325582 243.80219294 -349.93917084 243.77698326 C-346.37678539 243.75363314 -342.81487794 243.74949674 -339.25243568 243.75974464 C-337.33120748 243.76047282 -335.41000316 243.74143061 -333.48887634 243.72167969 C-326.45890226 243.76383575 -321.80155643 244.40178842 -315.84375 248.23046875 C-310.63985831 253.70824948 -309.37320876 258.11503031 -309.53125 265.54296875 C-310.14029044 270.78071654 -313.12186643 273.71157872 -316.90625 277.04296875 C-320.92115951 280.03279498 -323.59304253 280.35773027 -328.46562195 280.3843689 C-330.22143837 280.39726959 -330.22143837 280.39726959 -332.01272583 280.41043091 C-333.29847504 280.41469086 -334.58422424 280.41895081 -335.90893555 280.42333984 C-337.27569283 280.43124295 -338.64244803 280.43951203 -340.00920105 280.44812012 C-344.4996034 280.47431954 -348.99001498 280.48964723 -353.48046875 280.50390625 C-355.02776406 280.50926708 -356.57505931 280.51464459 -358.12235451 280.5200386 C-364.56051037 280.54166568 -370.99866375 280.56040088 -377.43684673 280.571661 C-386.65499789 280.58789051 -395.8727269 280.6210456 -405.09071892 280.67806184 C-411.57662573 280.71680723 -418.06241985 280.73629919 -424.54843932 280.74158156 C-428.41987694 280.74522922 -432.29086411 280.75718698 -436.16217613 280.7896843 C-439.80751388 280.81984596 -443.45213056 280.82604859 -447.0975666 280.81430054 C-449.06415704 280.81397597 -451.0307035 280.83838855 -452.99713135 280.86367798 C-460.26213873 280.81266362 -465.2595433 280.08302147 -470.84375 275.23046875 C-474.33749006 271.64938519 -476.13877148 267.73490562 -476.40625 262.73046875 C-476.04291667 257.18485484 -474.2621506 252.49175748 -470.16015625 248.65625 C-465.25613915 244.97560061 -461.33980622 244.10956941 -455.21551514 244.08329773 Z M-196.93682861 245.95631409 C-195.95002106 245.94633896 -194.9632135 245.93636383 -193.94650269 245.92608643 C-192.870065 245.92542175 -191.79362732 245.92475708 -190.68457031 245.92407227 C-189.54591522 245.91574875 -188.40726013 245.90742523 -187.23410034 245.89884949 C-183.46332393 245.87472032 -179.69272047 245.8659732 -175.921875 245.859375 C-173.30116727 245.85041015 -170.68046008 245.84128833 -168.05975342 245.83201599 C-162.56196447 245.8146529 -157.06421959 245.80779095 -151.56640625 245.80493164 C-145.22470323 245.80130021 -138.88348531 245.77143225 -132.54193044 245.72952706 C-126.42941171 245.69056024 -120.3171277 245.67933725 -114.20449066 245.67820549 C-111.60978314 245.67400196 -109.01507526 245.66156252 -106.4204483 245.64068794 C-102.78670766 245.61378358 -99.15429776 245.6185981 -95.52050781 245.63110352 C-94.45216705 245.61626923 -93.38382629 245.60143494 -92.28311157 245.58615112 C-85.58759466 245.65164906 -80.96931383 246.7709156 -75.84375 251.23046875 C-71.82173215 255.84263312 -71.1493584 260.46739931 -71.3984375 266.51171875 C-72.35885705 272.37533284 -74.97428107 275.88690423 -79.7341156 279.30773926 C-84.73620973 282.08903328 -89.77864371 281.79044536 -95.37524414 281.74804688 C-96.5175499 281.75505615 -97.65985565 281.76206543 -98.83677673 281.76928711 C-102.6010694 281.78684819 -106.36460634 281.77525093 -110.12890625 281.76171875 C-112.75011845 281.764414 -115.37132967 281.76829669 -117.99253845 281.77331543 C-123.48086697 281.78057868 -128.96897969 281.77103808 -134.45727539 281.75195312 C-140.79279705 281.73017577 -147.12780392 281.73724683 -153.46331316 281.75925875 C-159.57213774 281.77962932 -165.68073495 281.77743382 -171.78957939 281.76573181 C-174.38312286 281.76306433 -176.97667948 281.76633499 -179.5702076 281.77565002 C-183.19437577 281.78581139 -186.81755579 281.77031877 -190.44165039 281.74804688 C-191.51246857 281.7561438 -192.58328674 281.76424072 -193.68655396 281.77258301 C-200.81506128 281.69144841 -204.32860138 280.64542311 -209.48828125 275.6328125 C-213.80832976 270.21469146 -214.4800678 265.97543744 -213.84375 259.23046875 C-211.93294554 254.00089865 -208.79348092 250.01845972 -203.99027634 247.10697842 C-201.49234154 246.08697509 -199.63182023 245.97095391 -196.93682861 245.95631409 Z M-404.26416016 293.95581055 C-402.9984166 293.95069962 -401.73267303 293.94558868 -400.42857361 293.94032288 C-396.96772876 293.92696952 -393.50699337 293.92635016 -390.0461278 293.92888618 C-387.15116452 293.92995851 -384.25622315 293.92506574 -381.36126459 293.92028075 C-374.52793565 293.90919795 -367.69466169 293.90874105 -360.86132812 293.91479492 C-353.82557488 293.92083256 -346.79002173 293.90852632 -339.75430262 293.88722485 C-333.70143986 293.86957687 -327.6486406 293.86361257 -321.59575307 293.8668626 C-317.98606826 293.86867072 -314.37652616 293.86608666 -310.76686478 293.85214806 C-306.73848854 293.83717378 -302.71051633 293.84656768 -298.68212891 293.8581543 C-297.49537064 293.85051056 -296.30861237 293.84286682 -295.08589172 293.83499146 C-287.95550869 293.88027085 -281.45941265 294.14995161 -275.78515625 298.984375 C-275.33011719 299.58121094 -274.87507812 300.17804688 -274.40625 300.79296875 C-273.93316406 301.39238281 -273.46007812 301.99179687 -272.97265625 302.609375 C-269.70126995 307.30704045 -270.24952017 312.71656866 -270.84375 318.23046875 C-272.53718754 323.15251618 -274.73283347 325.52971719 -279.13183594 328.30455017 C-284.92473958 331.11981526 -290.78535164 330.79745862 -297.109375 330.76391602 C-298.42417847 330.77253159 -299.73898193 330.78114716 -301.09362793 330.7900238 C-304.68048719 330.81242098 -308.26690321 330.80960135 -311.85380554 330.80070233 C-314.85575953 330.79557297 -317.85763164 330.8029006 -320.85957718 330.81017441 C-327.94421879 330.82714214 -335.02864484 330.82363866 -342.11328125 330.80688477 C-349.40710825 330.7899586 -356.70033697 330.80581135 -363.99409866 330.83810765 C-370.2720849 330.8648466 -376.54988539 330.87206823 -382.82792282 330.86359257 C-386.5706791 330.85867677 -390.31307542 330.86080549 -394.05578613 330.88138008 C-398.23027626 330.90323258 -402.40363949 330.88429027 -406.578125 330.86157227 C-408.42367981 330.87911057 -408.42367981 330.87911057 -410.30651855 330.89700317 C-417.38544953 330.81868566 -422.45735643 330.06285511 -427.84375 325.23046875 C-432.06057512 320.06485798 -432.46958303 315.64356386 -432.23046875 309.0390625 C-431.53040285 303.95474553 -429.07163371 301.393727 -425.46875 297.98046875 C-418.78592976 293.52525526 -412.02241696 293.93966986 -404.26416016 293.95581055 Z M-197.03125 294.98046875 C-195.55301758 294.94953125 -195.55301758 294.94953125 -194.04492188 294.91796875 C-187.57168857 294.88318979 -183.16448441 295.49157242 -178.015625 299.73828125 C-174.12585729 304.16235771 -172.00379297 308.25886544 -171.84375 314.23046875 C-172.65935298 320.3984663 -175.12831224 324.19138507 -179.9296875 328.0390625 C-185.42872234 331.46193112 -190.32990255 331.59615845 -196.65625 331.60546875 C-197.52056641 331.62996094 -198.38488281 331.65445313 -199.27539062 331.6796875 C-205.29583779 331.7069499 -209.82571085 330.64825816 -214.84375 327.23046875 C-218.85785789 323.00509202 -221.12881411 319.22674993 -221.15625 313.35546875 C-221.01565097 308.02832762 -220.05183832 304.4489972 -216.19140625 300.5703125 C-209.99757496 295.03122024 -205.11181958 295.02225579 -197.03125 294.98046875 Z M-367.32202148 344.71289062 C-366.287005 344.70588135 -365.25198853 344.69887207 -364.18560791 344.69165039 C-360.77841032 344.67410419 -357.37204918 344.6856809 -353.96484375 344.69921875 C-351.59025412 344.69652309 -349.21566557 344.69264005 -346.84107971 344.68762207 C-341.87058985 344.68173174 -336.90038797 344.69027614 -331.92993164 344.70898438 C-325.56207354 344.73178562 -319.19488938 344.71863979 -312.82705593 344.69469452 C-307.92595855 344.68023486 -303.02502075 344.6848432 -298.12391853 344.69520569 C-295.77599063 344.69787184 -293.42804818 344.69460717 -291.08013725 344.68528748 C-287.79839605 344.67511822 -284.51774414 344.69062907 -281.23608398 344.71289062 C-279.78414391 344.70074524 -279.78414391 344.70074524 -278.3028717 344.68835449 C-272.63749952 344.75947884 -269.32315262 345.41837933 -264.84375 349.23046875 C-260.2754163 354.17949693 -258.37092773 358.4206483 -258.6015625 365.25 C-259.3292114 371.20029018 -262.82792736 374.43040762 -267.22265625 378.03125 C-269.98322475 380.07340549 -271.71963789 380.35907851 -275.09928894 380.37763977 C-275.99223663 380.38479507 -276.88518433 380.39195038 -277.80519104 380.39932251 C-278.7875322 380.40201141 -279.76987335 380.40470032 -280.78198242 380.4074707 C-281.81466248 380.4140419 -282.84734253 380.4206131 -283.91131592 380.42738342 C-287.34061754 380.44714912 -290.76987529 380.45878715 -294.19921875 380.46875 C-295.36913172 380.47282553 -296.53904469 380.47690105 -297.74440956 380.48110008 C-303.93808441 380.5019761 -310.13173701 380.51627044 -316.32543945 380.52563477 C-322.72353401 380.5366943 -329.12128031 380.571085 -335.51925182 380.61080647 C-340.43751166 380.63695482 -345.35568838 380.64532512 -350.27401161 380.64891624 C-352.63230042 380.65378782 -354.99058539 380.66541797 -357.34880638 380.68395424 C-360.65233271 380.70830386 -363.9549563 380.70738768 -367.25854492 380.70043945 C-368.71687492 380.71965454 -368.71687492 380.71965454 -370.20466614 380.73925781 C-377.06076534 380.68677155 -381.59644735 379.43494983 -386.62109375 374.4765625 C-390.20820403 368.88453537 -391.01721267 363.7846871 -389.84375 357.23046875 C-387.82366154 351.89992696 -384.99930501 348.88327169 -379.98639107 346.09375 C-375.88721158 344.44216923 -371.68460216 344.67632144 -367.32202148 344.71289062 Z M0.9140625 344.734375 C2.54735376 344.73421982 4.18064539 344.73272765 5.81393433 344.72996521 C9.22491884 344.72858572 12.63548056 344.74106599 16.04638672 344.76391602 C20.40872466 344.79234478 24.7703633 344.78954517 29.13275337 344.7768259 C32.50090465 344.76985826 35.86889544 344.7776696 39.23702621 344.79008293 C40.84530903 344.79458372 42.45360915 344.79494628 44.06189346 344.79101753 C46.31131357 344.78809338 48.55978245 344.80466662 50.80908203 344.82641602 C52.08623077 344.831819 53.36337952 344.83722198 54.67922974 344.8427887 C60.11508663 345.44887469 64.02641631 347.49946022 67.46875 351.73046875 C68.20544922 352.6121875 68.20544922 352.6121875 68.95703125 353.51171875 C72.00718445 357.88327382 71.71425764 363.13089895 71.15625 368.23046875 C69.47857346 373.06290661 66.46732939 376.52351192 62.15625 379.23046875 C57.40623674 380.82741234 53.26220305 381.48535823 48.26220703 381.50512695 C47.61239868 381.51023788 46.96259033 381.51534882 46.29309082 381.52061462 C44.16665166 381.53439882 42.04054074 381.53356227 39.9140625 381.53125 C38.42104983 381.53514334 36.92803825 381.53947931 35.43502808 381.54423523 C32.31325686 381.55167363 29.19159878 381.55142372 26.06982422 381.54614258 C22.09004984 381.54035389 18.11074176 381.55727568 14.13104439 381.58048725 C11.04931987 381.59529506 7.9677058 381.59608672 4.885952 381.59297752 C3.41968742 381.59348729 1.9534161 381.59865966 0.48718643 381.60878944 C-18.020819 381.72097096 -18.020819 381.72097096 -24.71875 375.60546875 C-28.01914175 370.3636701 -30.6300006 365.34115237 -29.28125 359.04296875 C-27.54325487 353.80816904 -25.35012852 350.27041783 -20.74267578 347.08959961 C-14.05398642 343.90550929 -6.32836315 344.67826724 0.9140625 344.734375 Z M-243.28125 393.91796875 C-242.38728516 393.90185547 -241.49332031 393.88574219 -240.57226562 393.86914062 C-233.96049195 393.86430392 -228.17111941 394.57756611 -222.8203125 398.84375 C-218.83067854 403.85961928 -216.75872473 407.55217261 -216.96875 414.16796875 C-217.92585667 419.92160998 -220.20046848 423.92953755 -224.84375 427.60546875 C-231.26909728 431.08586519 -237.92965434 430.52207716 -245.09375 430.60546875 C-246.29644531 430.64285156 -247.49914062 430.68023437 -248.73828125 430.71875 C-257.78965184 430.80817079 -262.70816295 429.14839332 -269.21875 422.98046875 C-271.88571504 418.4671433 -273.21585901 414.12624011 -272.5390625 408.859375 C-271.18852624 403.91574535 -268.98000734 400.76735016 -265.1484375 397.421875 C-258.38642394 393.92625782 -250.73249301 393.89099104 -243.28125 393.91796875 Z M-56.85417175 394.96304321 C-55.84909073 394.95451324 -54.8440097 394.94598328 -53.80847168 394.93719482 C-52.71176147 394.9381012 -51.61505127 394.93900757 -50.48510742 394.93994141 C-49.3253389 394.93322418 -48.16557037 394.92650696 -46.97065735 394.91958618 C-43.13013443 394.90056192 -39.28978588 394.89667963 -35.44921875 394.89453125 C-33.45552333 394.88972989 -31.46182787 394.88492514 -29.46813375 394.87961042 C-23.19773707 394.86333172 -16.9273978 394.8584409 -10.65698242 394.85986328 C-4.19831518 394.86106394 2.26001748 394.83997645 8.71860009 394.80837595 C14.27120173 394.7821808 19.82369434 394.77149737 25.37635726 394.7727741 C28.68933843 394.77328289 32.00195616 394.76579559 35.31488991 394.746418 C39.01334971 394.72681241 42.71095004 394.73257598 46.40942383 394.74462891 C47.50006134 394.73338989 48.59069885 394.72215088 49.71438599 394.71057129 C56.0927713 394.76336457 59.96548844 395.43884758 65.15625 399.23046875 C69.80880219 404.2602549 71.5982406 408.20998226 71.3984375 414.9921875 C70.73710345 421.10419414 67.28850917 424.33500478 62.77734375 428.03125 C59.85087774 430.19612968 57.96735613 430.36162911 54.37594604 430.3843689 C53.36664536 430.39296936 52.35734467 430.40156982 51.31745911 430.41043091 C49.64993843 430.41682083 49.64993843 430.41682083 47.94873047 430.42333984 C46.78110672 430.43151733 45.61348297 430.43969482 44.41047668 430.44812012 C40.53147756 430.47301005 36.65248606 430.48965312 32.7734375 430.50390625 C31.43695189 430.50926665 30.10046634 430.51464416 28.76398087 430.5200386 C23.20171735 430.54167244 17.63945674 430.56040635 12.07716179 430.571661 C4.1140849 430.5878802 -3.84850245 430.62100188 -11.81139481 430.67806184 C-17.41406155 430.71683422 -23.0165978 430.73630254 -28.61939514 430.74158156 C-31.96337607 430.74522668 -35.30642181 430.75967163 -38.6503334 430.7896843 C-42.38722077 430.82130585 -46.12287721 430.82137585 -49.85986328 430.81396484 C-51.50916588 430.83857285 -51.50916588 430.83857285 -53.19178772 430.86367798 C-59.96013058 430.80881415 -64.67590053 429.77715733 -69.84375 425.23046875 C-73.97175558 419.9381539 -75.39389366 415.94222141 -74.84375 409.23046875 C-72.73179344 403.07824747 -69.62528395 399.45470863 -63.99934864 396.14562035 C-61.4643611 395.06940057 -59.6044029 394.97361249 -56.85417175 394.96304321 Z M-407.1875 442.69921875 C-406.08579468 442.69539185 -404.98408936 442.69156494 -403.84899902 442.68762207 C-401.52936891 442.68491097 -399.2097078 442.69221561 -396.89013672 442.70898438 C-393.35444504 442.73040396 -389.82078528 442.7091537 -386.28515625 442.68359375 C-384.02343305 442.68623717 -381.7617111 442.69136243 -379.5 442.69921875 C-378.45082397 442.69112183 -377.40164795 442.6830249 -376.32067871 442.67468262 C-369.05945532 442.76673085 -363.50988694 443.86984322 -357.96875 448.94921875 C-354.29231497 454.77024088 -353.55468081 460.46739449 -354.84375 467.23046875 C-357.25451003 472.21962444 -360.74437231 475.9491682 -365.84375 478.23046875 C-368.78503599 479.11147963 -371.4360301 479.36560116 -374.5012207 479.39160156 C-375.87833977 479.40601288 -375.87833977 479.40601288 -377.28327942 479.42071533 C-378.76147408 479.42709015 -378.76147408 479.42709015 -380.26953125 479.43359375 C-381.80096016 479.44214386 -381.80096016 479.44214386 -383.36332703 479.4508667 C-385.52272508 479.46030678 -387.68213749 479.46684674 -389.84155273 479.47070312 C-393.13355842 479.4804019 -396.42493782 479.51143234 -399.71679688 479.54296875 C-401.81770464 479.54949993 -403.91861685 479.55474995 -406.01953125 479.55859375 C-406.99892166 479.57094055 -407.97831207 479.58328735 -408.98738098 479.5960083 C-416.98125658 479.57014363 -422.92564895 477.9841781 -428.84375 472.23046875 C-432.55115062 466.98897132 -432.75755735 461.42502818 -431.84375 455.23046875 C-429.779441 449.4867201 -426.79162257 446.77817554 -421.27905273 444.09483337 C-416.68174077 442.46310448 -412.0169065 442.66194823 -407.1875 442.69921875 Z M-233.09375 443.91796875 C-231.77117187 443.87446289 -231.77117187 443.87446289 -230.421875 443.83007812 C-223.15419068 443.75978058 -218.96572385 445.36162791 -213.53125 450.35546875 C-210.44730888 455.60959066 -209.5277931 460.90028665 -210.34375 466.91796875 C-212.51507346 471.71297473 -215.25587445 475.7544941 -219.8984375 478.40234375 C-224.30957118 479.64260945 -228.59434477 479.63931757 -233.15625 479.66796875 C-234.06826172 479.70083984 -234.98027344 479.73371094 -235.91992188 479.76757812 C-242.3800133 479.81851791 -246.95335015 478.59560617 -251.84375 474.23046875 C-255.73322248 468.96005882 -256.80611139 463.69031958 -255.84375 457.23046875 C-254.029784 451.78857076 -250.46112362 448.45213625 -245.84375 445.23046875 C-241.59812615 443.8152608 -237.54214532 443.96590404 -233.09375 443.91796875 Z M-101.61329651 443.96977234 C-100.5801532 443.96268753 -99.54700989 443.95560272 -98.4825592 443.94830322 C-96.79845192 443.95201935 -96.79845192 443.95201935 -95.08032227 443.95581055 C-93.88954071 443.95069962 -92.69875916 443.94558868 -91.47189331 443.94032288 C-88.21357829 443.92881731 -84.9554213 443.92635124 -81.69709134 443.92888618 C-78.9734768 443.92995764 -76.24988559 443.92506806 -73.52627605 443.92028075 C-67.09912388 443.90919471 -60.67203015 443.90874312 -54.24487305 443.91479492 C-47.62205913 443.92083521 -40.99945764 443.90852038 -34.37667996 443.88722485 C-28.68310049 443.86959267 -22.98958854 443.86361002 -17.29598278 443.8668626 C-13.89873058 443.86867298 -10.50162993 443.86606389 -7.10440254 443.85214806 C-3.31495897 443.83982045 0.47399213 443.84655382 4.26342773 443.8581543 C5.38414169 443.85051056 6.50485565 443.84286682 7.65953064 443.83499146 C14.79981433 443.88333698 19.18818175 444.81459925 24.84375 449.41796875 C28.50037636 453.86521703 30.52862891 458.38867744 30.21875 464.23046875 C29.32359628 469.06810802 26.77833252 472.95891034 23.15625 476.23046875 C16.42168232 480.37562126 11.07912169 480.80606812 3.26757812 480.74804688 C1.51482826 480.75856079 1.51482826 480.75856079 -0.27333069 480.76928711 C-4.11996515 480.7868327 -7.96585859 480.77525559 -11.8125 480.76171875 C-14.49476021 480.76441463 -17.17699827 480.76829224 -19.85925293 480.77331543 C-25.47444626 480.78057613 -31.0894286 480.77104588 -36.70458984 480.75195312 C-43.18039406 480.73018715 -49.6556944 480.73723966 -56.13148642 480.75925875 C-61.70884028 480.77745805 -67.28604316 480.77994908 -72.86341715 480.76950407 C-76.1869508 480.76329383 -79.51019808 480.7639541 -82.83372498 480.77565002 C-86.54118674 480.78583451 -90.24768772 480.77028575 -93.95507812 480.74804688 C-95.59024132 480.76019226 -95.59024132 480.76019226 -97.25843811 480.77258301 C-104.28992051 480.69464062 -110.06460434 479.74179661 -115.36322784 474.81867218 C-118.95801778 470.77256839 -120.61622805 467.24024596 -121.21875 461.91796875 C-120.62881226 456.11691428 -118.58259839 451.92473129 -114.40625 447.85546875 C-110.15322076 445.15842582 -106.65269411 443.98133587 -101.61329651 443.96977234 Z M-455.05729675 491.95631409 C-453.90083145 491.94633896 -452.74436615 491.93636383 -451.55285645 491.92608643 C-450.29299927 491.92542175 -449.03314209 491.92475708 -447.73510742 491.92407227 C-446.38775678 491.91644624 -445.04041048 491.90801797 -443.69306946 491.89884949 C-440.04004386 491.87694075 -436.38710196 491.86811045 -432.73401809 491.86302304 C-430.4492537 491.85937506 -428.16451109 491.85313269 -425.87975502 491.84602165 C-417.9018419 491.82153936 -409.92399368 491.80847799 -401.94604492 491.80493164 C-394.52110509 491.8012977 -387.09657894 491.7714097 -379.67176551 491.72952706 C-373.28771404 491.69478364 -366.90379942 491.6793825 -360.5196541 491.67868561 C-356.71086333 491.67789414 -352.90249418 491.6692162 -349.0938015 491.64068794 C-345.50914342 491.61443728 -341.9252544 491.61234007 -338.34054375 491.62834358 C-336.40738959 491.63101131 -334.47424995 491.60902187 -332.54122925 491.58615112 C-325.35172084 491.6464089 -320.34910817 492.39625975 -314.84375 497.23046875 C-310.26554392 502.16084453 -309.48618672 506.11629239 -309.5625 512.66015625 C-310.12429533 517.79434133 -312.5479942 521.00116196 -316.28125 524.54296875 C-320.69617208 527.45035646 -324.27764436 528.47999225 -329.55427551 528.49789429 C-330.69391251 528.50642426 -331.8335495 528.51495422 -333.00772095 528.52374268 C-334.24887665 528.5228363 -335.49003235 528.52192993 -336.76879883 528.52099609 C-338.08316422 528.52771332 -339.3975296 528.53443054 -340.75172424 528.54135132 C-344.35104277 528.55899157 -347.95026615 528.56370589 -351.54962373 528.56498289 C-353.80088615 528.56640632 -356.05212453 528.57067956 -358.30338097 528.57597733 C-366.16459051 528.59447197 -374.02573231 528.60264876 -381.88696289 528.60107422 C-389.20278288 528.59987338 -396.51830757 528.62096566 -403.83405286 528.65256155 C-410.12468656 528.67875721 -416.41522402 528.68944012 -422.70591182 528.6881634 C-426.45874366 528.68765467 -430.21131306 528.69328779 -433.96409035 528.7145195 C-438.153103 528.73757282 -442.34145879 528.72836096 -446.53051758 528.71630859 C-447.76560059 528.72754761 -449.00068359 528.73878662 -450.27319336 528.75036621 C-458.81598238 528.68794527 -464.01592059 527.3925887 -470.71875 521.85546875 C-474.61617835 517.04099844 -475.47537661 512.33619261 -474.84375 506.23046875 C-473.015727 500.96378627 -470.62713409 497.26383427 -465.84375 494.23046875 C-462.11321558 492.4704121 -459.16988872 491.97538899 -455.05729675 491.95631409 Z M-227.78125 492.66796875 C-226.73130859 492.65701172 -225.68136719 492.64605469 -224.59960938 492.63476562 C-218.15330742 492.69561807 -214.05556603 493.35843315 -208.84375 497.23046875 C-204.26272338 503.13758203 -203.1795119 507.93638249 -203.84375 515.23046875 C-205.80400971 521.11124789 -210.32348795 525.47033772 -215.84375 528.23046875 C-219.73318443 528.52732526 -223.63182141 528.50858225 -227.53125 528.54296875 C-229.14676758 528.58647461 -229.14676758 528.58647461 -230.79492188 528.63085938 C-237.40880177 528.68357577 -241.48982527 528.211406 -246.84375 524.23046875 C-251.63647796 519.05936753 -252.21262197 514.86501003 -252.11328125 508.01953125 C-251.64070542 503.12939879 -249.95200126 500.0823598 -246.27368164 496.85131836 C-240.26976448 492.65377628 -234.95481133 492.504431 -227.78125 492.66796875 Z M-179.11621094 493.0534668 C-178.15801453 493.04063156 -177.19981812 493.02779633 -176.21258545 493.01457214 C-174.66102753 493.00349174 -174.66102753 493.00349174 -173.078125 492.9921875 C-172.01136536 492.98411575 -170.94460571 492.97604401 -169.84552002 492.96772766 C-167.5859947 492.95389168 -165.32644852 492.94316736 -163.06689453 492.93530273 C-159.62101334 492.91810482 -156.17609528 492.87421489 -152.73046875 492.83007812 C-150.53386121 492.81994965 -148.33724553 492.81143403 -146.140625 492.8046875 C-145.11434998 492.78717941 -144.08807495 492.76967133 -143.03070068 492.75163269 C-136.72908115 492.77062292 -132.9833768 493.51239542 -127.84375 497.23046875 C-123.95525003 501.3291579 -122.10357766 504.93532443 -121.46875 510.54296875 C-122.08353061 516.58831138 -124.31017093 521.20589292 -128.96875 525.16796875 C-132.6253104 527.79115338 -134.24215042 528.35827506 -138.65722656 528.4074707 C-139.6587677 528.42030594 -140.66030884 528.43314117 -141.69219971 528.44636536 C-142.77861755 528.45375229 -143.8650354 528.46113922 -144.984375 528.46875 C-146.65678253 528.48085762 -146.65678253 528.48085762 -148.36297607 528.49320984 C-150.72683147 528.50705934 -153.09070694 528.5177776 -155.45458984 528.52563477 C-159.06516604 528.5428326 -162.67482325 528.58671061 -166.28515625 528.63085938 C-168.58072243 528.6409874 -170.8762964 528.64950316 -173.171875 528.65625 C-174.25019592 528.67375809 -175.32851685 528.69126617 -176.43951416 528.70930481 C-182.58134845 528.69158716 -186.1767844 528.34501609 -190.84375 524.23046875 C-194.68818538 520.06566376 -196.58044392 516.55633914 -197.21875 510.91796875 C-196.60726366 504.90501979 -194.381454 500.27369391 -189.78125 496.29296875 C-186.06718998 493.68522448 -183.53927065 493.10513559 -179.11621094 493.0534668 Z M-407.1875 540.69921875 C-406.08579468 540.69539185 -404.98408936 540.69156494 -403.84899902 540.68762207 C-401.52936891 540.68491097 -399.2097078 540.69221561 -396.89013672 540.70898438 C-393.35444504 540.73040396 -389.82078528 540.7091537 -386.28515625 540.68359375 C-384.02343305 540.68623717 -381.7617111 540.69136243 -379.5 540.69921875 C-378.45082397 540.69112183 -377.40164795 540.6830249 -376.32067871 540.67468262 C-369.13475632 540.76577628 -363.28608032 541.75159565 -358.00390625 547.08984375 C-354.89591218 552.44311468 -353.07287011 556.97456934 -354.21875 563.30078125 C-355.86726103 568.72026126 -359.02810801 572.29432975 -363.84375 575.23046875 C-369.31694648 577.57411955 -374.3995568 577.52092361 -380.24609375 577.49609375 C-381.73998375 577.49896393 -381.73998375 577.49896393 -383.26405334 577.50189209 C-385.36443332 577.50324941 -387.46482182 577.49958469 -389.56518555 577.49121094 C-392.76695765 577.48051649 -395.96816725 577.49111596 -399.16992188 577.50390625 C-401.21614706 577.50258435 -403.2623719 577.50002134 -405.30859375 577.49609375 C-406.25983627 577.50014221 -407.2110788 577.50419067 -408.19114685 577.50836182 C-416.64957136 577.44918191 -422.59460492 576.47961383 -428.84375 570.23046875 C-432.5689863 565.01513793 -432.75617892 559.41568401 -431.84375 553.23046875 C-429.779441 547.4867201 -426.79162257 544.77817554 -421.27905273 542.09483337 C-416.68174077 540.46310448 -412.0169065 540.66194823 -407.1875 540.69921875 Z M-232.21875 540.91796875 C-231.25839844 540.88896484 -230.29804688 540.85996094 -229.30859375 540.83007812 C-224.22262378 540.78522222 -220.65603723 541.08107497 -216.1328125 543.5 C-213.12664455 545.10597675 -213.12664455 545.10597675 -209.91357422 544.62182617 C-208.60785126 543.86434693 -207.3126871 543.08844289 -206.02734375 542.296875 C-201.73666642 540.20142793 -197.02481035 540.65761178 -192.34375 540.73046875 C-191.34988281 540.715 -190.35601562 540.69953125 -189.33203125 540.68359375 C-182.31183858 540.72068856 -176.39230578 541.74795509 -171.23022461 546.81396484 C-167.93482483 550.65079947 -166.91068939 554.67940468 -166.64453125 559.66796875 C-167.08098049 565.2819041 -169.31870341 569.62298721 -173.15625 573.66796875 C-179.30962882 577.24551458 -185.3270829 577.57058657 -192.28125 577.54296875 C-193.49264648 577.56713867 -193.49264648 577.56713867 -194.72851562 577.59179688 C-201.14881825 577.59697037 -206.54365666 576.46288483 -211.96875 572.79296875 C-212.5875 572.60734375 -213.20625 572.42171875 -213.84375 572.23046875 C-215.87710209 573.51236463 -217.87456154 574.85203683 -219.84375 576.23046875 C-228.27730193 578.13905193 -238.79319158 578.75258806 -246.84375 575.23046875 C-251.31907879 572.1321642 -254.1118843 569.42606585 -255.84375 564.23046875 C-256.48153278 558.95498158 -256.54735705 554.69180648 -254.21875 549.85546875 C-247.35631505 542.27067222 -242.19916763 541.01607246 -232.21875 540.91796875 Z M-180.09375 591.73046875 C-176.07281798 594.32052857 -173.50465631 597.76821815 -171.84375 602.23046875 C-170.96501657 607.19958968 -171.17250084 611.59097752 -173.53125 616.10546875 C-176.20012798 619.71206061 -178.8270038 622.22209565 -182.84375 624.23046875 C-186.08687303 624.52218887 -189.33902649 624.50839308 -192.59375 624.54296875 C-193.48835938 624.57197266 -194.38296875 624.60097656 -195.3046875 624.63085938 C-201.02148056 624.68566639 -204.3337515 624.09316637 -208.84375 620.23046875 C-213.45005155 615.00169401 -214.19688135 611.92326258 -214.125 605.05859375 C-213.58930903 599.67192339 -211.24976412 596.53360379 -207.28125 592.85546875 C-200.66019806 588.44143412 -187.44002191 588.51735946 -180.09375 591.73046875 Z M-59.58349609 590.03759766 C-58.83527588 590.02942017 -58.08705566 590.02124268 -57.31616211 590.01281738 C-54.83317871 589.9879523 -52.35025271 589.97144072 -49.8671875 589.95703125 C-49.01846699 589.95170757 -48.16974648 589.9463839 -47.29530716 589.9408989 C-42.79925693 589.91415693 -38.3032345 589.89478918 -33.80712891 589.88037109 C-29.17341988 589.86375991 -24.54042718 589.81901538 -19.90698814 589.76799965 C-16.33634677 589.73425415 -12.76587348 589.72278548 -9.19508743 589.71714401 C-7.48791686 589.71044701 -5.78075674 589.69526538 -4.07374191 589.6712532 C12.04455192 589.45753804 12.04455192 589.45753804 17.78695679 593.84994507 C22.02388543 598.12162353 23.39420631 601.75777508 23.65625 607.79296875 C23.46872138 612.68210789 22.44707757 615.4825818 19.15625 619.23046875 C18.558125 619.97296875 17.96 620.71546875 17.34375 621.48046875 C11.04811445 626.51697719 2.6463709 625.49983586 -4.96875 625.41796875 C-6.28302979 625.40717285 -7.59730957 625.39637695 -8.95141602 625.38525391 C-11.90702157 625.3584743 -14.86240197 625.32253783 -17.81787109 625.28369141 C-22.40125962 625.22789841 -26.9840029 625.221368 -31.56768799 625.21803284 C-35.63120394 625.20856604 -39.69421176 625.17193825 -43.75750732 625.12979126 C-45.76318934 625.11365787 -47.76897598 625.10735176 -49.77471924 625.11117554 C-52.6203707 625.1139275 -55.46332208 625.07870156 -58.30859375 625.03515625 C-59.57567924 625.04877449 -59.57567924 625.04877449 -60.86836243 625.06266785 C-67.27469565 624.90635298 -71.32381563 622.77794619 -75.84375 618.23046875 C-78.60318901 613.48768295 -79.51304852 609.68047102 -78.84375 604.23046875 C-75.60430122 594.65853817 -69.57975774 590.09760842 -59.58349609 590.03759766 Z M-188.96875 636.98046875 C-188.27394531 636.95984375 -187.57914062 636.93921875 -186.86328125 636.91796875 C-181.16690396 636.87505819 -177.15660015 638.05338339 -172.98046875 641.984375 C-172.50222656 642.58121094 -172.02398437 643.17804687 -171.53125 643.79296875 C-170.79455078 644.69208984 -170.79455078 644.69208984 -170.04296875 645.609375 C-166.80089112 649.99198808 -167.32241309 654.9881365 -167.84375 660.23046875 C-169.48250126 665.11109751 -172.59406193 668.39734337 -176.84375 671.23046875 C-181.10671656 672.6514576 -185.189767 672.49507937 -189.65625 672.54296875 C-190.99139648 672.58647461 -190.99139648 672.58647461 -192.35351562 672.63085938 C-198.05515659 672.68580477 -201.3409288 672.07399838 -205.84375 668.23046875 C-210.53654745 663.03034184 -211.25479418 658.93059149 -211.19140625 652.09375 C-210.64817954 647.61975927 -208.82867432 644.54976984 -205.84375 641.23046875 C-200.55130244 637.22886206 -195.43706223 637.0279426 -188.96875 636.98046875 Z M-106.2331543 636.93994141 C-104.94923294 636.92986557 -104.94923294 636.92986557 -103.63937378 636.91958618 C-100.8155127 636.90062084 -97.99188952 636.89668261 -95.16796875 636.89453125 C-93.19887699 636.8881019 -91.22978618 636.88137343 -89.26069641 636.87435913 C-85.13414293 636.86238973 -81.00767313 636.85867792 -76.88110352 636.85986328 C-71.60525243 636.86006635 -66.32994071 636.83277453 -61.05421734 636.79831886 C-56.98687803 636.7760299 -52.91966806 636.77202637 -48.85227394 636.77308273 C-46.9078975 636.77072939 -44.96351734 636.76192096 -43.01920128 636.746418 C-40.2932651 636.72671929 -37.56848596 636.7326113 -34.8425293 636.74462891 C-34.046931 636.73338989 -33.2513327 636.72215088 -32.43162537 636.71057129 C-26.81685407 636.77315464 -22.54490327 638.1140425 -17.84375 641.23046875 C-12.76851614 646.56597101 -12.49387719 651.17021126 -12.5625 658.28125 C-13.06834701 663.585618 -15.61390169 666.14703096 -19.46875 669.54296875 C-23.79352613 672.615836 -27.35196362 672.39120261 -32.51269531 672.4074707 C-33.41043167 672.4140419 -34.30816803 672.4206131 -35.23310852 672.42738342 C-38.21269814 672.44714073 -41.19223729 672.45878492 -44.171875 672.46875 C-45.18858025 672.47282553 -46.20528549 672.47690105 -47.25279999 672.48110008 C-52.63483986 672.50197199 -58.01685416 672.51626841 -63.39892578 672.52563477 C-68.95863228 672.53669674 -74.51793826 672.57109117 -80.0775032 672.61080647 C-84.35148869 672.63695251 -88.62537852 672.64532487 -92.89943695 672.64891624 C-94.94874524 672.65378802 -96.9980491 672.66541877 -99.04727936 672.68395424 C-101.91758426 672.70830081 -104.78685002 672.70738867 -107.65722656 672.70043945 C-108.92458397 672.71965454 -108.92458397 672.71965454 -110.21754456 672.73925781 C-116.38180618 672.68492996 -119.98215953 671.01049369 -124.48828125 666.6328125 C-128.81372477 661.20792514 -129.46894902 656.98030258 -128.84375 650.23046875 C-126.8360709 644.43050689 -123.10868078 640.92936625 -117.68659973 638.10800171 C-113.86688248 636.92892856 -110.19165728 636.93546591 -106.2331543 636.93994141 Z M-188.46875 684.66796875 C-186.96441406 684.63219727 -186.96441406 684.63219727 -185.4296875 684.59570312 C-178.76243832 684.60879327 -173.8672539 685.64789451 -168.84375 690.23046875 C-165.71167339 694.55212693 -164.14448147 698.84954594 -164.4609375 704.21875 C-165.75415316 711.01473026 -169.30102051 715.33876506 -174.84375 719.23046875 C-179.10831854 720.6519916 -183.18870685 720.45492168 -187.65625 720.48046875 C-188.54634766 720.50109375 -189.43644531 720.52171875 -190.35351562 720.54296875 C-196.56032797 720.57977713 -200.96811644 719.88304478 -205.70703125 715.51171875 C-206.18527344 714.92390625 -206.66351563 714.33609375 -207.15625 713.73046875 C-207.64738281 713.14265625 -208.13851563 712.55484375 -208.64453125 711.94921875 C-211.69029418 707.58395591 -211.50730254 702.32021833 -210.84375 697.23046875 C-206.66369862 686.65421806 -199.05201146 684.55322676 -188.46875 684.66796875 Z M-135.0078125 684.62890625 C-133.77388763 684.620336 -132.53996277 684.61176575 -131.26864624 684.60293579 C-128.66479948 684.59147634 -126.06088872 684.59042869 -123.45703125 684.59912109 C-119.48846377 684.60543737 -115.52288621 684.55851015 -111.5546875 684.5078125 C-109.01823291 684.50326555 -106.48177034 684.50185997 -103.9453125 684.50390625 C-102.17772079 684.47627701 -102.17772079 684.47627701 -100.37442017 684.4480896 C-92.73613837 684.53320788 -87.49294601 685.88864612 -81.84375 691.23046875 C-78.93024579 695.99802109 -77.90443875 700.70014182 -78.84375 706.23046875 C-80.77880114 712.13401461 -83.80813954 715.69482736 -88.84375 719.23046875 C-91.86946553 720.23904059 -93.95550619 720.37463333 -97.12207031 720.4074707 C-98.7395517 720.42672356 -98.7395517 720.42672356 -100.38970947 720.44636536 C-101.5553241 720.45375229 -102.72093872 720.46113922 -103.921875 720.46875 C-105.12181091 720.47682175 -106.32174683 720.48489349 -107.55804443 720.49320984 C-110.10004227 720.5070495 -112.64205868 720.51777218 -115.18408203 720.52563477 C-119.06448753 720.54283901 -122.94403927 720.5867272 -126.82421875 720.63085938 C-129.29426457 720.64098711 -131.76431763 720.64950296 -134.234375 720.65625 C-135.3918927 720.67375809 -136.5494104 720.69126617 -137.74200439 720.70930481 C-144.35609518 720.69156767 -148.48387417 720.21189446 -153.84375 716.23046875 C-157.58561776 712.38746943 -159.7889636 708.56026436 -159.87890625 703.09375 C-159.49063425 697.51589132 -158.19042581 693.72205997 -154.84375 689.23046875 C-148.55705574 684.45585982 -142.71177498 684.61703008 -135.0078125 684.62890625 Z M-229.50561523 732.72875977 C-228.4901059 732.72335678 -227.47459656 732.7179538 -226.42831421 732.71238708 C-223.08602367 732.6999238 -219.74459847 732.71637441 -216.40234375 732.734375 C-214.07259577 732.73421997 -211.74284754 732.73273031 -209.4131012 732.72996521 C-204.53675906 732.72858233 -199.66071144 732.74112219 -194.78442383 732.76391602 C-188.53771611 732.79231569 -182.29149704 732.78955737 -176.04475307 732.7768259 C-171.23631118 732.76986769 -166.42798202 732.77765947 -161.61955452 732.79008293 C-159.31628921 732.7945949 -157.0130118 732.79493646 -154.70974541 732.79101753 C-151.49040834 732.7881036 -148.27174244 732.80462131 -145.05249023 732.82641602 C-143.62860237 732.81966354 -143.62860237 732.81966354 -142.1759491 732.81277466 C-136.98167851 732.87113025 -133.32249033 733.30612699 -128.84375 736.23046875 C-124.5129156 740.75815926 -122.17285329 744.32338972 -121.46875 750.54296875 C-122.09218153 756.67337882 -124.35888833 760.67811337 -128.59375 765.10546875 C-135.08796234 769.35168451 -141.90975817 769.52690492 -149.4375 769.50512695 C-150.36216064 769.51023788 -151.28682129 769.51534882 -152.23950195 769.52061462 C-155.27431844 769.53443386 -158.30890593 769.53355993 -161.34375 769.53125 C-163.46549564 769.53514054 -165.58724051 769.53947595 -167.70898438 769.54423523 C-172.14716115 769.5516805 -176.58525835 769.551418 -181.0234375 769.54614258 C-186.69930464 769.54034382 -192.37484591 769.55729717 -198.05065918 769.58048725 C-202.42938122 769.59524522 -206.80802508 769.59609358 -211.18676758 769.59297752 C-213.27905931 769.59348948 -215.37135556 769.5987036 -217.46362305 769.60878944 C-220.39262887 769.62117935 -223.32100365 769.61434721 -226.25 769.6027832 C-227.5345105 769.61424881 -227.5345105 769.61424881 -228.8449707 769.62594604 C-236.49406715 769.55947739 -243.26021226 767.81400649 -248.84375 762.23046875 C-252.54770472 756.99384311 -252.76566753 751.42048643 -251.84375 745.23046875 C-249.84476953 739.89096979 -246.98183348 736.87917015 -241.97519112 734.09277153 C-237.93274746 732.45734732 -233.80998711 732.6848271 -229.50561523 732.72875977 Z M-186.46875 781.85546875 C-185.08816406 781.81873047 -185.08816406 781.81873047 -183.6796875 781.78125 C-176.90604358 781.7522201 -172.45184913 782.82238315 -167.38598633 787.60742188 C-163.89707188 791.46541053 -161.888112 795.1528552 -161.8125 800.3984375 C-162.25166982 806.953047 -164.40538275 810.97966821 -169.28125 815.48046875 C-174.98277814 819.37419529 -179.93128206 819.59557181 -186.65625 819.60546875 C-187.52056641 819.62996094 -188.38488281 819.65445313 -189.27539062 819.6796875 C-195.29583779 819.7069499 -199.82571085 818.64825816 -204.84375 815.23046875 C-210.08217971 809.71633221 -211.25849438 805.3782789 -211.08984375 797.91796875 C-210.60997214 792.67746607 -208.70675675 790.05595346 -204.96875 786.48046875 C-198.85542917 782.07887776 -193.80868279 781.8656631 -186.46875 781.85546875 Z " transform="translate(476.84375,-0.23046875)" style="fill: #040404;"></path></svg>